<?xml version="1.0" encoding="utf-8"?>
<!-- Generator: Adobe Illustrator 19.0.0, SVG Export Plug-In . SVG Version: 6.00 Build 0)  -->
<svg version="1.1" id="Prospect." xmlns="http://www.w3.org/2000/svg" xmlns:xlink="http://www.w3.org/1999/xlink" x="0px" y="0px"
	 width="495.4px" height="128.9px" viewBox="0 0 495.4 128.9" style="enable-background:new 0 0 495.4 128.9;" xml:space="preserve"
	>
<style type="text/css">
	.st0{fill:#137DBA;}
</style>
<g>
	<path d="M9,8.3h31.6c4.4,0,8.6,0.4,12.5,1.2c3.9,0.8,7.3,2.2,10.3,4.1c2.9,2,5.2,4.6,7,7.9c1.7,3.3,2.6,7.5,2.6,12.5
		c0,5-0.8,9.1-2.4,12.5c-1.6,3.4-3.8,6-6.6,8c-2.8,2-6.1,3.4-10,4.3c-3.8,0.8-8,1.3-12.5,1.3H27.7v33.1H9V8.3z M27.7,44.3h12.5
		c1.7,0,3.3-0.2,4.9-0.5c1.6-0.3,3-0.9,4.2-1.6c1.2-0.8,2.2-1.8,3-3.1c0.8-1.3,1.1-3,1.1-5c0-2.2-0.5-3.9-1.5-5.2
		c-1-1.3-2.3-2.3-3.8-3.1c-1.6-0.7-3.3-1.2-5.2-1.4c-1.9-0.2-3.8-0.3-5.5-0.3h-9.6V44.3z"/>
	<path d="M74.5,34.9h18v9.4h0.2c1.9-3.6,4.2-6.3,6.8-8.1c2.6-1.8,6-2.7,10-2.7c1,0,2.1,0,3.1,0.1c1,0.1,2,0.2,2.9,0.5v16.4
		c-1.3-0.4-2.5-0.7-3.8-0.9c-1.2-0.2-2.5-0.3-3.9-0.3c-3.4,0-6.2,0.5-8.2,1.4c-2,1-3.5,2.3-4.6,4C94,56.5,93.3,58.6,93,61
		c-0.3,2.4-0.5,5-0.5,7.9v24.4h-18V34.9z"/>
	<path d="M114.8,64.1c0-4.6,0.8-8.8,2.5-12.6c1.7-3.8,4-7,6.9-9.7c2.9-2.7,6.4-4.7,10.3-6.2s8.2-2.2,12.7-2.2
		c4.5,0,8.7,0.7,12.7,2.2s7.4,3.5,10.3,6.2c2.9,2.7,5.2,5.9,6.9,9.7c1.7,3.8,2.5,8,2.5,12.6c0,4.6-0.8,8.8-2.5,12.6
		c-1.7,3.8-4,7-6.9,9.7c-2.9,2.7-6.4,4.7-10.3,6.2c-4,1.4-8.2,2.2-12.7,2.2c-4.5,0-8.7-0.7-12.7-2.2c-4-1.4-7.4-3.5-10.3-6.2
		c-2.9-2.7-5.2-5.9-6.9-9.7C115.7,72.9,114.8,68.7,114.8,64.1z M132.8,64.1c0,4.4,1.3,8,3.8,10.7c2.5,2.7,6.1,4.1,10.6,4.1
		c4.6,0,8.1-1.4,10.6-4.1c2.5-2.7,3.8-6.3,3.8-10.7c0-4.4-1.3-8-3.8-10.7c-2.5-2.7-6.1-4.1-10.6-4.1c-4.6,0-8.1,1.4-10.6,4.1
		C134.1,56.1,132.8,59.7,132.8,64.1z"/>
	<path d="M215.3,52.1c-2.6-3.3-6.1-4.9-10.4-4.9c-1.5,0-3,0.4-4.4,1.1c-1.4,0.7-2.2,2-2.2,3.7c0,1.4,0.7,2.5,2.2,3.2
		c1.5,0.7,3.4,1.3,5.6,1.8c2.3,0.5,4.7,1.1,7.3,1.7c2.6,0.6,5,1.5,7.3,2.8c2.3,1.3,4.2,3,5.6,5.2c1.5,2.2,2.2,5.1,2.2,8.8
		c0,3.8-0.8,6.9-2.5,9.3c-1.6,2.4-3.7,4.4-6.3,5.9c-2.6,1.5-5.4,2.5-8.6,3.1c-3.2,0.6-6.4,0.9-9.5,0.9c-4.1,0-8.2-0.6-12.4-1.7
		c-4.2-1.2-7.7-3.2-10.6-6.2l10.9-12.1c1.7,2.1,3.5,3.7,5.6,4.7s4.4,1.6,7.1,1.6c2.1,0,4-0.3,5.6-0.9c1.7-0.6,2.5-1.7,2.5-3.3
		c0-1.5-0.7-2.7-2.2-3.4c-1.5-0.8-3.4-1.4-5.6-1.9c-2.3-0.5-4.7-1.1-7.3-1.7c-2.6-0.6-5-1.5-7.3-2.7c-2.3-1.2-4.2-2.9-5.6-5.1
		c-1.5-2.2-2.2-5.1-2.2-8.8c0-3.4,0.7-6.4,2.1-8.9c1.4-2.5,3.2-4.5,5.5-6.1c2.3-1.6,4.9-2.8,7.9-3.5c3-0.8,6-1.1,9-1.1
		c3.8,0,7.7,0.6,11.6,1.7c3.9,1.1,7.2,3.1,10,6L215.3,52.1z"/>
	<path d="M229.9,34.9h16.6v7.7h0.2c0.7-1,1.7-2.1,2.8-3.2c1.2-1.1,2.5-2.1,4.1-2.9c1.6-0.9,3.3-1.6,5.1-2.2c1.8-0.6,3.8-0.8,5.9-0.8
		c4.3,0,8.2,0.7,11.8,2.2c3.5,1.5,6.5,3.6,9.1,6.2c2.5,2.7,4.5,5.9,5.8,9.5c1.4,3.7,2,7.7,2,12.1c0,4.1-0.6,8-1.9,11.7
		c-1.2,3.7-3,7-5.3,9.9c-2.3,2.9-5.1,5.2-8.3,6.9c-3.3,1.7-7,2.6-11.2,2.6c-3.8,0-7.3-0.6-10.5-1.7c-3.2-1.2-5.9-3.1-8-5.9h-0.2
		v33.6h-18V34.9z M246.5,64.1c0,4.4,1.3,8,3.8,10.7c2.5,2.7,6.1,4.1,10.6,4.1s8.1-1.4,10.6-4.1c2.5-2.7,3.8-6.3,3.8-10.7
		c0-4.4-1.3-8-3.8-10.7c-2.5-2.7-6.1-4.1-10.6-4.1s-8.1,1.4-10.6,4.1C247.7,56.1,246.5,59.7,246.5,64.1z"/>
	<path d="M351.8,83.2c-2.9,3.7-6.5,6.5-10.9,8.5c-4.4,2-9,3-13.7,3c-4.5,0-8.7-0.7-12.7-2.2c-4-1.4-7.4-3.5-10.3-6.2
		c-2.9-2.7-5.2-5.9-6.9-9.7c-1.7-3.8-2.5-8-2.5-12.6c0-4.6,0.8-8.8,2.5-12.6c1.7-3.8,4-7,6.9-9.7c2.9-2.7,6.4-4.7,10.3-6.2
		c4-1.4,8.2-2.2,12.7-2.2c4.2,0,7.9,0.7,11.3,2.2c3.4,1.4,6.3,3.5,8.6,6.2c2.4,2.7,4.2,5.9,5.5,9.7c1.3,3.8,1.9,8,1.9,12.6v5.6
		h-41.8c0.7,3.4,2.3,6.2,4.7,8.2s5.4,3.1,8.9,3.1c3,0,5.5-0.7,7.5-2c2-1.3,3.8-3,5.3-5.1L351.8,83.2z M336.6,57.5
		c0.1-3-0.9-5.6-3-7.8c-2.1-2.2-4.8-3.2-8-3.2c-2,0-3.8,0.3-5.3,1c-1.5,0.6-2.8,1.5-3.9,2.5c-1.1,1-1.9,2.2-2.5,3.5
		c-0.6,1.3-0.9,2.7-1,4.1H336.6z"/>
	<path d="M397.8,53.8c-0.9-1.3-2.1-2.3-3.7-3.2c-1.6-0.8-3.3-1.3-5.2-1.3c-4.6,0-8.1,1.4-10.6,4.1c-2.5,2.7-3.8,6.3-3.8,10.7
		c0,4.4,1.3,8,3.8,10.7c2.5,2.7,6.1,4.1,10.6,4.1c2,0,3.7-0.4,5.2-1.3c1.4-0.9,2.7-1.9,3.7-3.1l11.9,12.5c-2.8,2.9-6.1,4.9-9.9,6.1
		c-3.8,1.2-7.4,1.7-10.9,1.7c-4.5,0-8.7-0.7-12.7-2.2c-4-1.4-7.4-3.5-10.3-6.2c-2.9-2.7-5.2-5.9-6.9-9.7c-1.7-3.8-2.5-8-2.5-12.6
		c0-4.6,0.8-8.8,2.5-12.6c1.7-3.8,4-7,6.9-9.7c2.9-2.7,6.4-4.7,10.3-6.2s8.2-2.2,12.7-2.2c3.4,0,7.1,0.6,10.9,1.7
		c3.8,1.2,7.1,3.2,9.9,6.1L397.8,53.8z"/>
	<path d="M455.8,49.3H440v19.4c0,1.6,0.1,3.1,0.2,4.4c0.2,1.3,0.5,2.5,1.1,3.4c0.6,1,1.4,1.7,2.6,2.2c1.2,0.5,2.7,0.8,4.6,0.8
		c1,0,2.2-0.1,3.8-0.3c1.6-0.2,2.7-0.7,3.5-1.4v15c-2,0.7-4.1,1.2-6.2,1.4s-4.3,0.4-6.4,0.4c-3,0-5.8-0.3-8.4-1
		c-2.6-0.6-4.8-1.7-6.7-3.1c-1.9-1.4-3.4-3.2-4.5-5.5c-1.1-2.2-1.6-5-1.6-8.2V49.3h-11.5V34.9H422V17.6h18v17.3h15.8V49.3z"/>
	<path class="st0" d="M461.1,82.9c0-1.5,0.3-3,0.8-4.3c0.6-1.4,1.3-2.5,2.3-3.5c1-1,2.2-1.8,3.5-2.3c1.4-0.6,2.8-0.8,4.3-0.8
		c1.5,0,3,0.3,4.3,0.8c1.4,0.6,2.5,1.3,3.5,2.3c1,1,1.8,2.2,2.3,3.5c0.6,1.4,0.8,2.8,0.8,4.3c0,1.5-0.3,3-0.8,4.3
		c-0.6,1.4-1.3,2.5-2.3,3.5c-1,1-2.2,1.8-3.5,2.3c-1.4,0.6-2.8,0.8-4.3,0.8c-1.5,0-3-0.3-4.3-0.8c-1.4-0.6-2.5-1.3-3.5-2.3
		c-1-1-1.8-2.2-2.3-3.5C461.4,85.9,461.1,84.5,461.1,82.9z"/>
</g>
</svg>
