<?xml version="1.0" encoding="utf-8"?>
<!-- Generator: Adobe Illustrator 22.0.1, SVG Export Plug-In . SVG Version: 6.00 Build 0)  -->
<svg version="1.1" id="Capa_1" xmlns="http://www.w3.org/2000/svg" xmlns:xlink="http://www.w3.org/1999/xlink" x="0px" y="0px"
	 viewBox="0 0 512 512" style="enable-background:new 0 0 512 512;" xml:space="preserve">
<style type="text/css">
	.st0{fill:#FFFFFF;}
</style>
<g>
	<path class="st0" d="M347.9,244.2l-85.6-85.6c-3.3-3.3-7.3-5-12-5c-4.6,0-8.5,1.7-11.8,5l-9.9,9.9c-3.3,3.2-5,7.1-5,11.8
		c0,4.7,1.7,8.7,5,11.8l38.5,38.6h-92.5c-4.6,0-8.3,1.6-11.1,4.9s-4.3,7.3-4.3,11.9v16.8c0,4.6,1.4,8.6,4.3,11.9s6.6,4.9,11.1,4.9
		h92.5l-38.5,38.5c-3.3,3.3-5,7.3-5,12c0,4.6,1.7,8.6,5,12l9.9,9.9c3.4,3.2,7.4,4.9,11.8,4.9c4.6,0,8.5-1.6,12-4.9l85.6-85.6
		c3.2-3.2,4.9-7.2,4.9-12C352.7,251.2,351.1,247.2,347.9,244.2z"/>
</g>
</svg>
