<?xml version="1.0" encoding="utf-8"?>
<!-- Generator: Adobe Illustrator 22.0.1, SVG Export Plug-In . SVG Version: 6.00 Build 0)  -->
<svg version="1.1" id="Layer_1" xmlns="http://www.w3.org/2000/svg" xmlns:xlink="http://www.w3.org/1999/xlink" x="0px" y="0px"
	 viewBox="0 0 998.4 665.6" style="enable-background:new 0 0 998.4 665.6;" xml:space="preserve">
<g>
	<g>
		<g>
			<path d="M674.2,157.8c-5.7-5.7-14.8-5.7-20.5,0L324.2,487.3c-5.7,5.7-5.7,14.8,0,20.5c2.8,2.8,6.5,4.2,10.2,4.2
				c3.7,0,7.4-1.4,10.2-4.2l329.4-329.4C679.8,172.7,679.8,163.5,674.2,157.8z"/>
		</g>
	</g>
	<g>
		<g>
			<path d="M674.2,487.3L344.7,157.8c-5.7-5.7-14.8-5.7-20.5,0c-5.7,5.7-5.7,14.8,0,20.5l329.4,329.4c2.8,2.8,6.5,4.2,10.2,4.2
				c3.7,0,7.4-1.4,10.2-4.2C679.8,502.1,679.8,492.9,674.2,487.3z"/>
		</g>
	</g>
</g>
</svg>
