<?xml version="1.0" encoding="utf-8"?>
<!-- Generator: Adobe Illustrator 22.0.1, SVG Export Plug-In . SVG Version: 6.00 Build 0)  -->
<svg version="1.1" id="Layer_1" xmlns="http://www.w3.org/2000/svg" xmlns:xlink="http://www.w3.org/1999/xlink" x="0px" y="0px"
	 viewBox="0 0 998.4 665.6" style="enable-background:new 0 0 998.4 665.6;" xml:space="preserve">
<g>
	<g>
		<g>
			<path d="M663.9,318.3H334.5c-8,0-14.5,6.5-14.5,14.5s6.5,14.5,14.5,14.5h329.4c8,0,14.5-6.5,14.5-14.5
				C678.4,324.8,671.9,318.3,663.9,318.3z"/>
		</g>
	</g>
	<g>
		<g>
			<path d="M663.9,208.5H334.5c-8,0-14.5,6.5-14.5,14.5s6.5,14.5,14.5,14.5h329.4c8,0,14.5-6.5,14.5-14.5S671.9,208.5,663.9,208.5z"
				/>
		</g>
	</g>
	<g>
		<g>
			<path d="M663.9,428.1H334.5c-8,0-14.5,6.5-14.5,14.5s6.5,14.5,14.5,14.5h329.4c8,0,14.5-6.5,14.5-14.5S671.9,428.1,663.9,428.1z"
				/>
		</g>
	</g>
</g>
</svg>
